<svg aria-roledescription="flowchart-v2" role="graphics-document document" viewBox="-8 -8 1050.104736328125 254.75" style="max-width: 1050.104736328125px;" xmlns="http://www.w3.org/2000/svg" width="100%" id="mermaid-svg-1768330078554-6f4yv60e8"><style>#mermaid-svg-1768330078554-6f4yv60e8{font-family:"trebuchet ms",verdana,arial,sans-serif;font-size:16px;fill:#7b88a1;}#mermaid-svg-1768330078554-6f4yv60e8 .error-icon{fill:#bf616a;}#mermaid-svg-1768330078554-6f4yv60e8 .error-text{fill:#bf616a;stroke:#bf616a;}#mermaid-svg-1768330078554-6f4yv60e8 .edge-thickness-normal{stroke-width:2px;}#mermaid-svg-1768330078554-6f4yv60e8 .edge-thickness-thick{stroke-width:3.5px;}#mermaid-svg-1768330078554-6f4yv60e8 .edge-pattern-solid{stroke-dasharray:0;}#mermaid-svg-1768330078554-6f4yv60e8 .edge-pattern-dashed{stroke-dasharray:3;}#mermaid-svg-1768330078554-6f4yv60e8 .edge-pattern-dotted{stroke-dasharray:2;}#mermaid-svg-1768330078554-6f4yv60e8 .marker{fill:rgba(123, 136, 161, 0.7);stroke:rgba(123, 136, 161, 0.7);}#mermaid-svg-1768330078554-6f4yv60e8 .marker.cross{stroke:rgba(123, 136, 161, 0.7);}#mermaid-svg-1768330078554-6f4yv60e8 svg{font-family:"trebuchet ms",verdana,arial,sans-serif;font-size:16px;}#mermaid-svg-1768330078554-6f4yv60e8 .label{font-family:"trebuchet ms",verdana,arial,sans-serif;color:#7b88a1;}#mermaid-svg-1768330078554-6f4yv60e8 .cluster-label text{fill:#7b88a1;}#mermaid-svg-1768330078554-6f4yv60e8 .cluster-label span,#mermaid-svg-1768330078554-6f4yv60e8 p{color:#7b88a1;}#mermaid-svg-1768330078554-6f4yv60e8 .label text,#mermaid-svg-1768330078554-6f4yv60e8 span,#mermaid-svg-1768330078554-6f4yv60e8 p{fill:#7b88a1;color:#7b88a1;}#mermaid-svg-1768330078554-6f4yv60e8 .node rect,#mermaid-svg-1768330078554-6f4yv60e8 .node circle,#mermaid-svg-1768330078554-6f4yv60e8 .node ellipse,#mermaid-svg-1768330078554-6f4yv60e8 .node polygon,#mermaid-svg-1768330078554-6f4yv60e8 .node path{fill:#1e2127;stroke:#454545;stroke-width:1px;}#mermaid-svg-1768330078554-6f4yv60e8 .flowchart-label text{text-anchor:middle;}#mermaid-svg-1768330078554-6f4yv60e8 .node .label{text-align:center;}#mermaid-svg-1768330078554-6f4yv60e8 .node.clickable{cursor:pointer;}#mermaid-svg-1768330078554-6f4yv60e8 .arrowheadPath{fill:#e1ded8;}#mermaid-svg-1768330078554-6f4yv60e8 .edgePath .path{stroke:rgba(123, 136, 161, 0.7);stroke-width:2.0px;}#mermaid-svg-1768330078554-6f4yv60e8 .flowchart-link{stroke:rgba(123, 136, 161, 0.7);fill:none;}#mermaid-svg-1768330078554-6f4yv60e8 .edgeLabel{background-color:#1e212799;text-align:center;}#mermaid-svg-1768330078554-6f4yv60e8 .edgeLabel rect{opacity:0.5;background-color:#1e212799;fill:#1e212799;}#mermaid-svg-1768330078554-6f4yv60e8 .labelBkg{background-color:rgba(30, 33, 39, 0.5);}#mermaid-svg-1768330078554-6f4yv60e8 .cluster rect{fill:rgba(67, 76, 94, 0.47);stroke:#454545;stroke-width:1px;}#mermaid-svg-1768330078554-6f4yv60e8 .cluster text{fill:#7b88a1;}#mermaid-svg-1768330078554-6f4yv60e8 .cluster span,#mermaid-svg-1768330078554-6f4yv60e8 p{color:#7b88a1;}#mermaid-svg-1768330078554-6f4yv60e8 div.mermaidTooltip{position:absolute;text-align:center;max-width:200px;padding:2px;font-family:"trebuchet ms",verdana,arial,sans-serif;font-size:12px;background:rgba(67, 76, 94, 0.6);border:1px solid #454545;border-radius:2px;pointer-events:none;z-index:100;}#mermaid-svg-1768330078554-6f4yv60e8 .flowchartTitleText{text-anchor:middle;font-size:18px;fill:#7b88a1;}#mermaid-svg-1768330078554-6f4yv60e8 :root{--mermaid-font-family:"trebuchet ms",verdana,arial,sans-serif;}</style><g><marker orient="auto" markerHeight="12" markerWidth="12" markerUnits="userSpaceOnUse" refY="5" refX="6" viewBox="0 0 10 10" class="marker flowchart" id="mermaid-svg-1768330078554-6f4yv60e8_flowchart-pointEnd"><path style="stroke-width: 1; stroke-dasharray: 1, 0;" class="arrowMarkerPath" d="M 0 0 L 10 5 L 0 10 z"/></marker><marker orient="auto" markerHeight="12" markerWidth="12" markerUnits="userSpaceOnUse" refY="5" refX="4.5" viewBox="0 0 10 10" class="marker flowchart" id="mermaid-svg-1768330078554-6f4yv60e8_flowchart-pointStart"><path style="stroke-width: 1; stroke-dasharray: 1, 0;" class="arrowMarkerPath" d="M 0 5 L 10 10 L 10 0 z"/></marker><marker orient="auto" markerHeight="11" markerWidth="11" markerUnits="userSpaceOnUse" refY="5" refX="11" viewBox="0 0 10 10" class="marker flowchart" id="mermaid-svg-1768330078554-6f4yv60e8_flowchart-circleEnd"><circle style="stroke-width: 1; stroke-dasharray: 1, 0;" class="arrowMarkerPath" r="5" cy="5" cx="5"/></marker><marker orient="auto" markerHeight="11" markerWidth="11" markerUnits="userSpaceOnUse" refY="5" refX="-1" viewBox="0 0 10 10" class="marker flowchart" id="mermaid-svg-1768330078554-6f4yv60e8_flowchart-circleStart"><circle style="stroke-width: 1; stroke-dasharray: 1, 0;" class="arrowMarkerPath" r="5" cy="5" cx="5"/></marker><marker orient="auto" markerHeight="11" markerWidth="11" markerUnits="userSpaceOnUse" refY="5.2" refX="12" viewBox="0 0 11 11" class="marker cross flowchart" id="mermaid-svg-1768330078554-6f4yv60e8_flowchart-crossEnd"><path style="stroke-width: 2; stroke-dasharray: 1, 0;" class="arrowMarkerPath" d="M 1,1 l 9,9 M 10,1 l -9,9"/></marker><marker orient="auto" markerHeight="11" markerWidth="11" markerUnits="userSpaceOnUse" refY="5.2" refX="-1" viewBox="0 0 11 11" class="marker cross flowchart" id="mermaid-svg-1768330078554-6f4yv60e8_flowchart-crossStart"><path style="stroke-width: 2; stroke-dasharray: 1, 0;" class="arrowMarkerPath" d="M 1,1 l 9,9 M 10,1 l -9,9"/></marker><g class="root"><g class="clusters"/><g class="edgePaths"><path marker-end="url(#mermaid-svg-1768330078554-6f4yv60e8_flowchart-pointEnd)" style="fill:none;" class="edge-thickness-normal edge-pattern-solid flowchart-link LS-Client LE-WS" id="L-Client-WS-0" d="M195.711,33.75L195.711,39.479C195.711,45.208,195.711,56.667,195.711,67.242C195.711,77.817,195.711,87.508,195.711,92.354L195.711,97.2"/><path marker-end="url(#mermaid-svg-1768330078554-6f4yv60e8_flowchart-pointEnd)" style="fill:none;" class="edge-thickness-normal edge-pattern-solid flowchart-link LS-WS LE-AuctionService" id="L-WS-AuctionService-0" d="M151.195,136.25L136.082,141.979C120.968,147.708,90.741,159.167,75.628,169.742C60.514,180.317,60.514,190.008,60.514,194.854L60.514,199.7"/><path marker-end="url(#mermaid-svg-1768330078554-6f4yv60e8_flowchart-pointEnd)" style="fill:none;" class="edge-thickness-normal edge-pattern-solid flowchart-link LS-WS LE-WalletService" id="L-WS-WalletService-0" d="M195.711,136.25L195.711,141.979C195.711,147.708,195.711,159.167,198.769,169.872C201.827,180.578,207.942,190.531,211,195.508L214.058,200.484"/><path marker-end="url(#mermaid-svg-1768330078554-6f4yv60e8_flowchart-pointEnd)" style="fill:none;" class="edge-thickness-normal edge-pattern-solid flowchart-link LS-WS LE-Redis" id="L-WS-Redis-0" d="M267.274,134.941L294.615,140.888C321.957,146.836,376.64,158.73,411.577,169.906C446.515,181.082,461.706,191.538,469.302,196.767L476.898,201.995"/><path marker-end="url(#mermaid-svg-1768330078554-6f4yv60e8_flowchart-pointEnd)" style="fill:none;" class="edge-thickness-normal edge-pattern-solid flowchart-link LS-Timer LE-Redis" id="L-Timer-Redis-0" d="M527.277,33.75L520.028,39.479C512.779,45.208,498.282,56.667,491.033,70.938C483.784,85.208,483.784,102.292,483.784,119.375C483.784,136.458,483.784,153.542,485.895,167.001C488.005,180.46,492.226,190.295,494.336,195.212L496.447,200.13"/><path marker-end="url(#mermaid-svg-1768330078554-6f4yv60e8_flowchart-pointEnd)" style="fill:none;" class="edge-thickness-normal edge-pattern-solid flowchart-link LS-Timer LE-SettlementService" id="L-Timer-SettlementService-0" d="M580.347,33.75L591.116,39.479C601.885,45.208,623.423,56.667,634.192,67.242C644.961,77.817,644.961,87.508,644.961,92.354L644.961,97.2"/><path marker-end="url(#mermaid-svg-1768330078554-6f4yv60e8_flowchart-pointEnd)" style="fill:none;" class="edge-thickness-normal edge-pattern-solid flowchart-link LS-SettlementService LE-Redis" id="L-SettlementService-Redis-0" d="M634.593,136.25L631.072,141.979C627.552,147.708,620.512,159.167,605.751,170.245C590.989,181.324,568.507,192.023,557.266,197.373L546.025,202.723"/><path marker-end="url(#mermaid-svg-1768330078554-6f4yv60e8_flowchart-pointEnd)" style="fill:none;" class="edge-thickness-normal edge-pattern-solid flowchart-link LS-SettlementService LE-WalletService" id="L-SettlementService-WalletService-0" d="M571.79,131.08L530.589,137.671C489.389,144.262,406.987,157.443,355.681,169.352C304.375,181.261,284.166,191.896,274.061,197.214L263.956,202.532"/><path marker-end="url(#mermaid-svg-1768330078554-6f4yv60e8_flowchart-pointEnd)" style="fill:none;" class="edge-thickness-normal edge-pattern-solid flowchart-link LS-SettlementService LE-MongoDB" id="L-SettlementService-MongoDB-0" d="M718.131,134.673L746.79,140.665C775.449,146.657,832.767,158.641,866.69,169.747C900.613,180.852,911.141,191.08,916.405,196.193L921.669,201.307"/><path marker-end="url(#mermaid-svg-1768330078554-6f4yv60e8_flowchart-pointEnd)" style="fill:none;" class="edge-thickness-normal edge-pattern-solid flowchart-link LS-Recovery LE-MongoDB" id="L-Recovery-MongoDB-0" d="M921.714,136.25L934.028,141.979C946.342,147.708,970.971,159.167,978.021,170.01C985.071,180.852,974.543,191.08,969.279,196.193L964.015,201.307"/><path marker-end="url(#mermaid-svg-1768330078554-6f4yv60e8_flowchart-pointEnd)" style="fill:none;" class="edge-thickness-normal edge-pattern-solid flowchart-link LS-Recovery LE-Redis" id="L-Recovery-Redis-0" d="M849.172,136.25L836.858,141.979C824.543,147.708,799.915,159.167,751.441,171.772C702.967,184.378,630.647,198.13,594.487,205.006L558.327,211.883"/></g><g class="edgeLabels"><g transform="translate(195.71125602722168, 68.125)" class="edgeLabel"><g transform="translate(-11.266275405883789, -9.375)" class="label"><rect height="18.750288009643555" width="22.52638816833496" ry="0" rx="0"/><text style=""><tspan class="row" x="0" dy="1em" xml:space="preserve">Bid</tspan></text></g></g><g transform="translate(60.514320373535156, 170.625)" class="edgeLabel"><g transform="translate(-29.111328125, -9.375)" class="label"><rect height="18.750288009643555" width="58.21052932739258" ry="0" rx="0"/><text style=""><tspan class="row" x="0" dy="1em" xml:space="preserve">Validate</tspan></text></g></g><g transform="translate(195.71125602722168, 170.625)" class="edgeLabel"><g transform="translate(-54.596351623535156, -9.375)" class="label"><rect height="18.750288009643555" width="109.16183471679688" ry="0" rx="0"/><text style=""><tspan class="row" x="0" dy="1em" xml:space="preserve">Freeze Balance</tspan></text></g></g><g transform="translate(431.32323265075684, 170.625)" class="edgeLabel"><g transform="translate(-32.4609375, -9.375)" class="label"><rect height="18.750288009643555" width="64.90985107421875" ry="0" rx="0"/><text style=""><tspan class="row" x="0" dy="1em" xml:space="preserve">Store Bid</tspan></text></g></g><g transform="translate(483.78417015075684, 119.375)" class="edgeLabel"><g transform="translate(-21.516925811767578, -9.375)" class="label"><rect height="18.750288009643555" width="43.02149200439453" ry="0" rx="0"/><text style=""><tspan class="row" x="0" dy="1em" xml:space="preserve">Check</tspan></text></g></g><g transform="translate(644.9609222412109, 68.125)" class="edgeLabel"><g transform="translate(-43.27473831176758, -9.375)" class="label"><rect height="18.750288009643555" width="86.5312728881836" ry="0" rx="0"/><text style=""><tspan class="row" x="0" dy="1em" xml:space="preserve">Close Round</tspan></text></g></g><g transform="translate(613.4716663360596, 170.625)" class="edgeLabel"><g transform="translate(-64.62890625, -9.375)" class="label"><rect height="18.750288009643555" width="129.2272491455078" ry="0" rx="0"/><text style=""><tspan class="row" x="0" dy="1em" xml:space="preserve">Calculate Winners</tspan></text></g></g><g transform="translate(324.58495140075684, 170.625)" class="edgeLabel"><g transform="translate(-54.27734375, -9.375)" class="label"><rect height="18.750288009643555" width="108.53031158447266" ry="0" rx="0"/><text style=""><tspan class="row" x="0" dy="1em" xml:space="preserve">Deduct/Refund</tspan></text></g></g><g transform="translate(890.0846118927002, 170.625)" class="edgeLabel"><g transform="translate(-47.008460998535156, -9.375)" class="label"><rect height="18.750288009643555" width="93.99884033203125" ry="0" rx="0"/><text style=""><tspan class="row" x="0" dy="1em" xml:space="preserve">Update State</tspan></text></g></g><g transform="translate(995.5989322662354, 170.625)" class="edgeLabel"><g transform="translate(-38.505859375, -9.375)" class="label"><rect height="18.750288009643555" width="76.99337005615234" ry="0" rx="0"/><text style=""><tspan class="row" x="0" dy="1em" xml:space="preserve">On Startup</tspan></text></g></g><g transform="translate(775.2864398956299, 170.625)" class="edgeLabel"><g transform="translate(-47.789710998535156, -9.375)" class="label"><rect height="18.750288009643555" width="95.55485534667969" ry="0" rx="0"/><text style=""><tspan class="row" x="0" dy="1em" xml:space="preserve">Rebuild State</tspan></text></g></g></g><g class="nodes"><g transform="translate(195.71125602722168, 16.875)" id="flowchart-Client-22" class="node default default flowchart-label"><rect height="33.75" width="140.37109375" y="-16.875" x="-70.185546875" ry="0" rx="0" style="" class="basic label-container"/><g transform="translate(0, -9.375)" style="" class="label"><rect/><text style=""><tspan class="row" x="0" dy="1em" xml:space="preserve">WebSocket Client</tspan></text></g></g><g transform="translate(195.71125602722168, 119.375)" id="flowchart-WS-23" class="node default default flowchart-label"><rect height="33.75" width="143.125" y="-16.875" x="-71.5625" ry="0" rx="0" style="" class="basic label-container"/><g transform="translate(0, -9.375)" style="" class="label"><rect/><text style=""><tspan class="row" x="0" dy="1em" xml:space="preserve">WebSocket Server</tspan></text></g></g><g transform="translate(60.514320373535156, 221.875)" id="flowchart-AuctionService-25" class="node default default flowchart-label"><rect height="33.75" width="121.02864074707031" y="-16.875" x="-60.514320373535156" ry="0" rx="0" style="" class="basic label-container"/><g transform="translate(0, -9.375)" style="" class="label"><rect/><text style=""><tspan class="row" x="0" dy="1em" xml:space="preserve">AuctionService</tspan></text></g></g><g transform="translate(227.20051193237305, 221.875)" id="flowchart-WalletService-27" class="node default default flowchart-label"><rect height="33.75" width="112.34375" y="-16.875" x="-56.171875" ry="0" rx="0" style="" class="basic label-container"/><g transform="translate(0, -9.375)" style="" class="label"><rect/><text style=""><tspan class="row" x="0" dy="1em" xml:space="preserve">WalletService</tspan></text></g></g><g transform="translate(505.77961349487305, 221.875)" id="flowchart-Redis-29" class="node default default flowchart-label"><rect height="33.75" width="94.68098449707031" y="-16.875" x="-47.340492248535156" ry="0" rx="0" style="" class="basic label-container"/><g transform="translate(0, -9.375)" style="" class="label"><rect/><text style=""><tspan class="row" x="0" dy="1em" xml:space="preserve">Redis State</tspan></text></g></g><g transform="translate(548.6279182434082, 16.875)" id="flowchart-Timer-30" class="node default default flowchart-label"><rect height="33.75" width="160.13671875" y="-16.875" x="-80.068359375" ry="0" rx="0" style="" class="basic label-container"/><g transform="translate(0, -9.375)" style="" class="label"><rect/><text style=""><tspan class="row" x="0" dy="1em" xml:space="preserve">Round Timer Worker</tspan></text></g></g><g transform="translate(644.9609222412109, 119.375)" id="flowchart-SettlementService-33" class="node default default flowchart-label"><rect height="33.75" width="146.3411407470703" y="-16.875" x="-73.17057037353516" ry="0" rx="0" style="" class="basic label-container"/><g transform="translate(0, -9.375)" style="" class="label"><rect/><text style=""><tspan class="row" x="0" dy="1em" xml:space="preserve">SettlementService</tspan></text></g></g><g transform="translate(942.8417720794678, 221.875)" id="flowchart-MongoDB-39" class="node default default flowchart-label"><rect height="33.75" width="79.16666412353516" y="-16.875" x="-39.58333206176758" ry="0" rx="0" style="" class="basic label-container"/><g transform="translate(0, -9.375)" style="" class="label"><rect/><text style=""><tspan class="row" x="0" dy="1em" xml:space="preserve">MongoDB</tspan></text></g></g><g transform="translate(885.4426860809326, 119.375)" id="flowchart-Recovery-40" class="node default default flowchart-label"><rect height="33.75" width="136.08072662353516" y="-16.875" x="-68.04036331176758" ry="0" rx="0" style="" class="basic label-container"/><g transform="translate(0, -9.375)" style="" class="label"><rect/><text style=""><tspan class="row" x="0" dy="1em" xml:space="preserve">Recovery Service</tspan></text></g></g></g></g></g></svg>